<svg class="rich-terminal" viewBox="0 0 1324 928.4" xmlns="http://www.w3.org/2000/svg">
    <!-- Generated with Rich https://www.textualize.io -->
    <style>

    @font-face {
        font-family: "Fira Code";
        src: local("FiraCode-Regular"),
                url("https://cdnjs.cloudflare.com/ajax/libs/firacode/6.2.0/woff2/FiraCode-Regular.woff2") format("woff2"),
                url("https://cdnjs.cloudflare.com/ajax/libs/firacode/6.2.0/woff/FiraCode-Regular.woff") format("woff");
        font-style: normal;
        font-weight: 400;
    }
    @font-face {
        font-family: "Fira Code";
        src: local("FiraCode-Bold"),
                url("https://cdnjs.cloudflare.com/ajax/libs/firacode/6.2.0/woff2/FiraCode-Bold.woff2") format("woff2"),
                url("https://cdnjs.cloudflare.com/ajax/libs/firacode/6.2.0/woff/FiraCode-Bold.woff") format("woff");
        font-style: bold;
        font-weight: 700;
    }

    .terminal-1244943241-matrix {
        font-family: Fira Code, monospace;
        font-size: 20px;
        line-height: 24.4px;
        font-variant-east-asian: full-width;
    }

    .terminal-1244943241-title {
        font-size: 18px;
        font-weight: bold;
        font-family: arial;
    }

    .terminal-1244943241-r1 { fill: #c5c8c6 }
.terminal-1244943241-r2 { fill: #a9b1d6 }
.terminal-1244943241-r3 { fill: #1a1b26 }
.terminal-1244943241-r4 { fill: #21140d;font-weight: bold }
.terminal-1244943241-r5 { fill: #a9b1d6;font-weight: bold }
.terminal-1244943241-r6 { fill: #181420;font-weight: bold }
.terminal-1244943241-r7 { fill: #070817 }
    </style>

    <defs>
    <clipPath id="terminal-1244943241-clip-terminal">
      <rect x="0" y="0" width="1304.3999999999999" height="877.4" />
    </clipPath>
    <clipPath id="terminal-1244943241-line-0">
    <rect x="0" y="1.5" width="1305.4" height="24.65"/>
            </clipPath>
<clipPath id="terminal-1244943241-line-1">
    <rect x="0" y="25.9" width="1305.4" height="24.65"/>
            </clipPath>
<clipPath id="terminal-1244943241-line-2">
    <rect x="0" y="50.3" width="1305.4" height="24.65"/>
            </clipPath>
<clipPath id="terminal-1244943241-line-3">
    <rect x="0" y="74.7" width="1305.4" height="24.65"/>
            </clipPath>
<clipPath id="terminal-1244943241-line-4">
    <rect x="0" y="99.1" width="1305.4" height="24.65"/>
            </clipPath>
<clipPath id="terminal-1244943241-line-5">
    <rect x="0" y="123.5" width="1305.4" height="24.65"/>
            </clipPath>
<clipPath id="terminal-1244943241-line-6">
    <rect x="0" y="147.9" width="1305.4" height="24.65"/>
            </clipPath>
<clipPath id="terminal-1244943241-line-7">
    <rect x="0" y="172.3" width="1305.4" height="24.65"/>
            </clipPath>
<clipPath id="terminal-1244943241-line-8">
    <rect x="0" y="196.7" width="1305.4" height="24.65"/>
            </clipPath>
<clipPath id="terminal-1244943241-line-9">
    <rect x="0" y="221.1" width="1305.4" height="24.65"/>
            </clipPath>
<clipPath id="terminal-1244943241-line-10">
    <rect x="0" y="245.5" width="1305.4" height="24.65"/>
            </clipPath>
<clipPath id="terminal-1244943241-line-11">
    <rect x="0" y="269.9" width="1305.4" height="24.65"/>
            </clipPath>
<clipPath id="terminal-1244943241-line-12">
    <rect x="0" y="294.3" width="1305.4" height="24.65"/>
            </clipPath>
<clipPath id="terminal-1244943241-line-13">
    <rect x="0" y="318.7" width="1305.4" height="24.65"/>
            </clipPath>
<clipPath id="terminal-1244943241-line-14">
    <rect x="0" y="343.1" width="1305.4" height="24.65"/>
            </clipPath>
<clipPath id="terminal-1244943241-line-15">
    <rect x="0" y="367.5" width="1305.4" height="24.65"/>
            </clipPath>
<clipPath id="terminal-1244943241-line-16">
    <rect x="0" y="391.9" width="1305.4" height="24.65"/>
            </clipPath>
<clipPath id="terminal-1244943241-line-17">
    <rect x="0" y="416.3" width="1305.4" height="24.65"/>
            </clipPath>
<clipPath id="terminal-1244943241-line-18">
    <rect x="0" y="440.7" width="1305.4" height="24.65"/>
            </clipPath>
<clipPath id="terminal-1244943241-line-19">
    <rect x="0" y="465.1" width="1305.4" height="24.65"/>
            </clipPath>
<clipPath id="terminal-1244943241-line-20">
    <rect x="0" y="489.5" width="1305.4" height="24.65"/>
            </clipPath>
<clipPath id="terminal-1244943241-line-21">
    <rect x="0" y="513.9" width="1305.4" height="24.65"/>
            </clipPath>
<clipPath id="terminal-1244943241-line-22">
    <rect x="0" y="538.3" width="1305.4" height="24.65"/>
            </clipPath>
<clipPath id="terminal-1244943241-line-23">
    <rect x="0" y="562.7" width="1305.4" height="24.65"/>
            </clipPath>
<clipPath id="terminal-1244943241-line-24">
    <rect x="0" y="587.1" width="1305.4" height="24.65"/>
            </clipPath>
<clipPath id="terminal-1244943241-line-25">
    <rect x="0" y="611.5" width="1305.4" height="24.65"/>
            </clipPath>
<clipPath id="terminal-1244943241-line-26">
    <rect x="0" y="635.9" width="1305.4" height="24.65"/>
            </clipPath>
<clipPath id="terminal-1244943241-line-27">
    <rect x="0" y="660.3" width="1305.4" height="24.65"/>
            </clipPath>
<clipPath id="terminal-1244943241-line-28">
    <rect x="0" y="684.7" width="1305.4" height="24.65"/>
            </clipPath>
<clipPath id="terminal-1244943241-line-29">
    <rect x="0" y="709.1" width="1305.4" height="24.65"/>
            </clipPath>
<clipPath id="terminal-1244943241-line-30">
    <rect x="0" y="733.5" width="1305.4" height="24.65"/>
            </clipPath>
<clipPath id="terminal-1244943241-line-31">
    <rect x="0" y="757.9" width="1305.4" height="24.65"/>
            </clipPath>
<clipPath id="terminal-1244943241-line-32">
    <rect x="0" y="782.3" width="1305.4" height="24.65"/>
            </clipPath>
<clipPath id="terminal-1244943241-line-33">
    <rect x="0" y="806.7" width="1305.4" height="24.65"/>
            </clipPath>
<clipPath id="terminal-1244943241-line-34">
    <rect x="0" y="831.1" width="1305.4" height="24.65"/>
            </clipPath>
    </defs>

    <rect fill="#292929" stroke="rgba(255,255,255,0.35)" stroke-width="1" x="1" y="1" width="1322" height="926.4" rx="8"/><text class="terminal-1244943241-title" fill="#c5c8c6" text-anchor="middle" x="661" y="27">ChipBoy</text>
            <g transform="translate(26,22)">
            <circle cx="0" cy="0" r="7" fill="#ff5f57"/>
            <circle cx="22" cy="0" r="7" fill="#febc2e"/>
            <circle cx="44" cy="0" r="7" fill="#28c840"/>
            </g>
        
    <g transform="translate(9, 41)" clip-path="url(#terminal-1244943241-clip-terminal)">
    <rect fill="#414868" x="0" y="1.5" width="12.2" height="24.65" shape-rendering="crispEdges"/><rect fill="#414868" x="12.2" y="1.5" width="12.2" height="24.65" shape-rendering="crispEdges"/><rect fill="#414868" x="24.4" y="1.5" width="61" height="24.65" shape-rendering="crispEdges"/><rect fill="#414868" x="85.4" y="1.5" width="12.2" height="24.65" shape-rendering="crispEdges"/><rect fill="#414868" x="97.6" y="1.5" width="488" height="24.65" shape-rendering="crispEdges"/><rect fill="#414868" x="585.6" y="1.5" width="85.4" height="24.65" shape-rendering="crispEdges"/><rect fill="#414868" x="671" y="1.5" width="488" height="24.65" shape-rendering="crispEdges"/><rect fill="#414868" x="1159" y="1.5" width="12.2" height="24.65" shape-rendering="crispEdges"/><rect fill="#414868" x="1171.2" y="1.5" width="0" height="24.65" shape-rendering="crispEdges"/><rect fill="#414868" x="1171.2" y="1.5" width="97.6" height="24.65" shape-rendering="crispEdges"/><rect fill="#414868" x="1268.8" y="1.5" width="12.2" height="24.65" shape-rendering="crispEdges"/><rect fill="#4f4270" x="1281" y="1.5" width="24.4" height="24.65" shape-rendering="crispEdges"/><rect fill="#fe9e64" x="0" y="25.9" width="12.2" height="24.65" shape-rendering="crispEdges"/><rect fill="#fe9e64" x="12.2" y="25.9" width="793" height="24.65" shape-rendering="crispEdges"/><rect fill="#fe9e64" x="805.2" y="25.9" width="463.6" height="24.65" shape-rendering="crispEdges"/><rect fill="#fe9e64" x="1268.8" y="25.9" width="12.2" height="24.65" shape-rendering="crispEdges"/><rect fill="#4f4270" x="1281" y="25.9" width="24.4" height="24.65" shape-rendering="crispEdges"/><rect fill="#464d6d" x="0" y="50.3" width="48.8" height="24.65" shape-rendering="crispEdges"/><rect fill="#464d6d" x="48.8" y="50.3" width="73.2" height="24.65" shape-rendering="crispEdges"/><rect fill="#464d6d" x="122" y="50.3" width="122" height="24.65" shape-rendering="crispEdges"/><rect fill="#464d6d" x="244" y="50.3" width="122" height="24.65" shape-rendering="crispEdges"/><rect fill="#3f4562" x="366" y="50.3" width="402.6" height="24.65" shape-rendering="crispEdges"/><rect fill="#1a1b26" x="768.6" y="50.3" width="512.4" height="24.65" shape-rendering="crispEdges"/><rect fill="#4f4270" x="1281" y="50.3" width="24.4" height="24.65" shape-rendering="crispEdges"/><rect fill="#464d6d" x="0" y="74.7" width="48.8" height="24.65" shape-rendering="crispEdges"/><rect fill="#212538" x="48.8" y="74.7" width="73.2" height="24.65" shape-rendering="crispEdges"/><rect fill="#212538" x="122" y="74.7" width="122" height="24.65" shape-rendering="crispEdges"/><rect fill="#212538" x="244" y="74.7" width="122" height="24.65" shape-rendering="crispEdges"/><rect fill="#23273a" x="366" y="74.7" width="402.6" height="24.65" shape-rendering="crispEdges"/><rect fill="#1a1b26" x="768.6" y="74.7" width="512.4" height="24.65" shape-rendering="crispEdges"/><rect fill="#4f4270" x="1281" y="74.7" width="24.4" height="24.65" shape-rendering="crispEdges"/><rect fill="#464d6d" x="0" y="99.1" width="48.8" height="24.65" shape-rendering="crispEdges"/><rect fill="#2a2e42" x="48.8" y="99.1" width="73.2" height="24.65" shape-rendering="crispEdges"/><rect fill="#2a2e42" x="122" y="99.1" width="122" height="24.65" shape-rendering="crispEdges"/><rect fill="#2a2e42" x="244" y="99.1" width="122" height="24.65" shape-rendering="crispEdges"/><rect fill="#2a2e42" x="366" y="99.1" width="402.6" height="24.65" shape-rendering="crispEdges"/><rect fill="#1a1b26" x="768.6" y="99.1" width="512.4" height="24.65" shape-rendering="crispEdges"/><rect fill="#4f4270" x="1281" y="99.1" width="24.4" height="24.65" shape-rendering="crispEdges"/><rect fill="#464d6d" x="0" y="123.5" width="48.8" height="24.65" shape-rendering="crispEdges"/><rect fill="#212538" x="48.8" y="123.5" width="73.2" height="24.65" shape-rendering="crispEdges"/><rect fill="#212538" x="122" y="123.5" width="122" height="24.65" shape-rendering="crispEdges"/><rect fill="#212538" x="244" y="123.5" width="122" height="24.65" shape-rendering="crispEdges"/><rect fill="#23273a" x="366" y="123.5" width="402.6" height="24.65" shape-rendering="crispEdges"/><rect fill="#1a1b26" x="768.6" y="123.5" width="512.4" height="24.65" shape-rendering="crispEdges"/><rect fill="#4f4270" x="1281" y="123.5" width="24.4" height="24.65" shape-rendering="crispEdges"/><rect fill="#464d6d" x="0" y="147.9" width="48.8" height="24.65" shape-rendering="crispEdges"/><rect fill="#2a2e42" x="48.8" y="147.9" width="73.2" height="24.65" shape-rendering="crispEdges"/><rect fill="#2a2e42" x="122" y="147.9" width="122" height="24.65" shape-rendering="crispEdges"/><rect fill="#2a2e42" x="244" y="147.9" width="122" height="24.65" shape-rendering="crispEdges"/><rect fill="#2a2e42" x="366" y="147.9" width="402.6" height="24.65" shape-rendering="crispEdges"/><rect fill="#1a1b26" x="768.6" y="147.9" width="512.4" height="24.65" shape-rendering="crispEdges"/><rect fill="#4f4270" x="1281" y="147.9" width="24.4" height="24.65" shape-rendering="crispEdges"/><rect fill="#464d6d" x="0" y="172.3" width="48.8" height="24.65" shape-rendering="crispEdges"/><rect fill="#212538" x="48.8" y="172.3" width="73.2" height="24.65" shape-rendering="crispEdges"/><rect fill="#212538" x="122" y="172.3" width="122" height="24.65" shape-rendering="crispEdges"/><rect fill="#212538" x="244" y="172.3" width="122" height="24.65" shape-rendering="crispEdges"/><rect fill="#23273a" x="366" y="172.3" width="402.6" height="24.65" shape-rendering="crispEdges"/><rect fill="#1a1b26" x="768.6" y="172.3" width="512.4" height="24.65" shape-rendering="crispEdges"/><rect fill="#4f4270" x="1281" y="172.3" width="24.4" height="24.65" shape-rendering="crispEdges"/><rect fill="#464d6d" x="0" y="196.7" width="48.8" height="24.65" shape-rendering="crispEdges"/><rect fill="#2a2e42" x="48.8" y="196.7" width="73.2" height="24.65" shape-rendering="crispEdges"/><rect fill="#2a2e42" x="122" y="196.7" width="122" height="24.65" shape-rendering="crispEdges"/><rect fill="#2a2e42" x="244" y="196.7" width="122" height="24.65" shape-rendering="crispEdges"/><rect fill="#2a2e42" x="366" y="196.7" width="402.6" height="24.65" shape-rendering="crispEdges"/><rect fill="#1a1b26" x="768.6" y="196.7" width="512.4" height="24.65" shape-rendering="crispEdges"/><rect fill="#4f4270" x="1281" y="196.7" width="24.4" height="24.65" shape-rendering="crispEdges"/><rect fill="#464d6d" x="0" y="221.1" width="48.8" height="24.65" shape-rendering="crispEdges"/><rect fill="#212538" x="48.8" y="221.1" width="73.2" height="24.65" shape-rendering="crispEdges"/><rect fill="#212538" x="122" y="221.1" width="122" height="24.65" shape-rendering="crispEdges"/><rect fill="#212538" x="244" y="221.1" width="122" height="24.65" shape-rendering="crispEdges"/><rect fill="#23273a" x="366" y="221.1" width="402.6" height="24.65" shape-rendering="crispEdges"/><rect fill="#1a1b26" x="768.6" y="221.1" width="512.4" height="24.65" shape-rendering="crispEdges"/><rect fill="#4f4270" x="1281" y="221.1" width="24.4" height="24.65" shape-rendering="crispEdges"/><rect fill="#464d6d" x="0" y="245.5" width="48.8" height="24.65" shape-rendering="crispEdges"/><rect fill="#2a2e42" x="48.8" y="245.5" width="73.2" height="24.65" shape-rendering="crispEdges"/><rect fill="#2a2e42" x="122" y="245.5" width="122" height="24.65" shape-rendering="crispEdges"/><rect fill="#2a2e42" x="244" y="245.5" width="122" height="24.65" shape-rendering="crispEdges"/><rect fill="#2a2e42" x="366" y="245.5" width="402.6" height="24.65" shape-rendering="crispEdges"/><rect fill="#1a1b26" x="768.6" y="245.5" width="512.4" height="24.65" shape-rendering="crispEdges"/><rect fill="#4f4270" x="1281" y="245.5" width="24.4" height="24.65" shape-rendering="crispEdges"/><rect fill="#464d6d" x="0" y="269.9" width="48.8" height="24.65" shape-rendering="crispEdges"/><rect fill="#212538" x="48.8" y="269.9" width="73.2" height="24.65" shape-rendering="crispEdges"/><rect fill="#212538" x="122" y="269.9" width="122" height="24.65" shape-rendering="crispEdges"/><rect fill="#212538" x="244" y="269.9" width="122" height="24.65" shape-rendering="crispEdges"/><rect fill="#23273a" x="366" y="269.9" width="402.6" height="24.65" shape-rendering="crispEdges"/><rect fill="#1a1b26" x="768.6" y="269.9" width="512.4" height="24.65" shape-rendering="crispEdges"/><rect fill="#4f4270" x="1281" y="269.9" width="24.4" height="24.65" shape-rendering="crispEdges"/><rect fill="#464d6d" x="0" y="294.3" width="48.8" height="24.65" shape-rendering="crispEdges"/><rect fill="#2a2e42" x="48.8" y="294.3" width="73.2" height="24.65" shape-rendering="crispEdges"/><rect fill="#2a2e42" x="122" y="294.3" width="122" height="24.65" shape-rendering="crispEdges"/><rect fill="#2a2e42" x="244" y="294.3" width="122" height="24.65" shape-rendering="crispEdges"/><rect fill="#2a2e42" x="366" y="294.3" width="402.6" height="24.65" shape-rendering="crispEdges"/><rect fill="#1a1b26" x="768.6" y="294.3" width="512.4" height="24.65" shape-rendering="crispEdges"/><rect fill="#4f4270" x="1281" y="294.3" width="24.4" height="24.65" shape-rendering="crispEdges"/><rect fill="#464d6d" x="0" y="318.7" width="48.8" height="24.65" shape-rendering="crispEdges"/><rect fill="#212538" x="48.8" y="318.7" width="73.2" height="24.65" shape-rendering="crispEdges"/><rect fill="#212538" x="122" y="318.7" width="122" height="24.65" shape-rendering="crispEdges"/><rect fill="#212538" x="244" y="318.7" width="122" height="24.65" shape-rendering="crispEdges"/><rect fill="#23273a" x="366" y="318.7" width="402.6" height="24.65" shape-rendering="crispEdges"/><rect fill="#1a1b26" x="768.6" y="318.7" width="512.4" height="24.65" shape-rendering="crispEdges"/><rect fill="#4f4270" x="1281" y="318.7" width="24.4" height="24.65" shape-rendering="crispEdges"/><rect fill="#464d6d" x="0" y="343.1" width="48.8" height="24.65" shape-rendering="crispEdges"/><rect fill="#2a2e42" x="48.8" y="343.1" width="73.2" height="24.65" shape-rendering="crispEdges"/><rect fill="#2a2e42" x="122" y="343.1" width="122" height="24.65" shape-rendering="crispEdges"/><rect fill="#2a2e42" x="244" y="343.1" width="122" height="24.65" shape-rendering="crispEdges"/><rect fill="#2a2e42" x="366" y="343.1" width="402.6" height="24.65" shape-rendering="crispEdges"/><rect fill="#1a1b26" x="768.6" y="343.1" width="512.4" height="24.65" shape-rendering="crispEdges"/><rect fill="#4f4270" x="1281" y="343.1" width="24.4" height="24.65" shape-rendering="crispEdges"/><rect fill="#464d6d" x="0" y="367.5" width="48.8" height="24.65" shape-rendering="crispEdges"/><rect fill="#212538" x="48.8" y="367.5" width="73.2" height="24.65" shape-rendering="crispEdges"/><rect fill="#212538" x="122" y="367.5" width="122" height="24.65" shape-rendering="crispEdges"/><rect fill="#212538" x="244" y="367.5" width="122" height="24.65" shape-rendering="crispEdges"/><rect fill="#23273a" x="366" y="367.5" width="402.6" height="24.65" shape-rendering="crispEdges"/><rect fill="#1a1b26" x="768.6" y="367.5" width="512.4" height="24.65" shape-rendering="crispEdges"/><rect fill="#4f4270" x="1281" y="367.5" width="24.4" height="24.65" shape-rendering="crispEdges"/><rect fill="#464d6d" x="0" y="391.9" width="48.8" height="24.65" shape-rendering="crispEdges"/><rect fill="#bb9af7" x="48.8" y="391.9" width="73.2" height="24.65" shape-rendering="crispEdges"/><rect fill="#2a2e42" x="122" y="391.9" width="122" height="24.65" shape-rendering="crispEdges"/><rect fill="#2a2e42" x="244" y="391.9" width="122" height="24.65" shape-rendering="crispEdges"/><rect fill="#2a2e42" x="366" y="391.9" width="402.6" height="24.65" shape-rendering="crispEdges"/><rect fill="#1a1b26" x="768.6" y="391.9" width="512.4" height="24.65" shape-rendering="crispEdges"/><rect fill="#4f4270" x="1281" y="391.9" width="24.4" height="24.65" shape-rendering="crispEdges"/><rect fill="#464d6d" x="0" y="416.3" width="48.8" height="24.65" shape-rendering="crispEdges"/><rect fill="#212538" x="48.8" y="416.3" width="73.2" height="24.65" shape-rendering="crispEdges"/><rect fill="#212538" x="122" y="416.3" width="122" height="24.65" shape-rendering="crispEdges"/><rect fill="#212538" x="244" y="416.3" width="122" height="24.65" shape-rendering="crispEdges"/><rect fill="#23273a" x="366" y="416.3" width="402.6" height="24.65" shape-rendering="crispEdges"/><rect fill="#1a1b26" x="768.6" y="416.3" width="512.4" height="24.65" shape-rendering="crispEdges"/><rect fill="#4f4270" x="1281" y="416.3" width="24.4" height="24.65" shape-rendering="crispEdges"/><rect fill="#2a2e42" x="0" y="440.7" width="768.6" height="24.65" shape-rendering="crispEdges"/><rect fill="#1a1b26" x="768.6" y="440.7" width="512.4" height="24.65" shape-rendering="crispEdges"/><rect fill="#4f4270" x="1281" y="440.7" width="24.4" height="24.65" shape-rendering="crispEdges"/><rect fill="#2a2e42" x="0" y="465.1" width="768.6" height="24.65" shape-rendering="crispEdges"/><rect fill="#1a1b26" x="768.6" y="465.1" width="512.4" height="24.65" shape-rendering="crispEdges"/><rect fill="#4f4270" x="1281" y="465.1" width="24.4" height="24.65" shape-rendering="crispEdges"/><rect fill="#2a2e42" x="0" y="489.5" width="768.6" height="24.65" shape-rendering="crispEdges"/><rect fill="#1a1b26" x="768.6" y="489.5" width="512.4" height="24.65" shape-rendering="crispEdges"/><rect fill="#4f4270" x="1281" y="489.5" width="24.4" height="24.65" shape-rendering="crispEdges"/><rect fill="#2a2e42" x="0" y="513.9" width="768.6" height="24.65" shape-rendering="crispEdges"/><rect fill="#1a1b26" x="768.6" y="513.9" width="512.4" height="24.65" shape-rendering="crispEdges"/><rect fill="#4f4270" x="1281" y="513.9" width="24.4" height="24.65" shape-rendering="crispEdges"/><rect fill="#2a2e42" x="0" y="538.3" width="768.6" height="24.65" shape-rendering="crispEdges"/><rect fill="#1a1b26" x="768.6" y="538.3" width="512.4" height="24.65" shape-rendering="crispEdges"/><rect fill="#4f4270" x="1281" y="538.3" width="24.4" height="24.65" shape-rendering="crispEdges"/><rect fill="#2a2e42" x="0" y="562.7" width="768.6" height="24.65" shape-rendering="crispEdges"/><rect fill="#1a1b26" x="768.6" y="562.7" width="512.4" height="24.65" shape-rendering="crispEdges"/><rect fill="#4f4270" x="1281" y="562.7" width="24.4" height="24.65" shape-rendering="crispEdges"/><rect fill="#2a2e42" x="0" y="587.1" width="768.6" height="24.65" shape-rendering="crispEdges"/><rect fill="#1a1b26" x="768.6" y="587.1" width="512.4" height="24.65" shape-rendering="crispEdges"/><rect fill="#4f4270" x="1281" y="587.1" width="24.4" height="24.65" shape-rendering="crispEdges"/><rect fill="#2a2e42" x="0" y="611.5" width="768.6" height="24.65" shape-rendering="crispEdges"/><rect fill="#1a1b26" x="768.6" y="611.5" width="512.4" height="24.65" shape-rendering="crispEdges"/><rect fill="#4f4270" x="1281" y="611.5" width="24.4" height="24.65" shape-rendering="crispEdges"/><rect fill="#2a2e42" x="0" y="635.9" width="768.6" height="24.65" shape-rendering="crispEdges"/><rect fill="#1a1b26" x="768.6" y="635.9" width="512.4" height="24.65" shape-rendering="crispEdges"/><rect fill="#4f4270" x="1281" y="635.9" width="24.4" height="24.65" shape-rendering="crispEdges"/><rect fill="#2a2e42" x="0" y="660.3" width="768.6" height="24.65" shape-rendering="crispEdges"/><rect fill="#1a1b26" x="768.6" y="660.3" width="512.4" height="24.65" shape-rendering="crispEdges"/><rect fill="#4f4270" x="1281" y="660.3" width="24.4" height="24.65" shape-rendering="crispEdges"/><rect fill="#2a2e42" x="0" y="684.7" width="768.6" height="24.65" shape-rendering="crispEdges"/><rect fill="#1a1b26" x="768.6" y="684.7" width="512.4" height="24.65" shape-rendering="crispEdges"/><rect fill="#4f4270" x="1281" y="684.7" width="24.4" height="24.65" shape-rendering="crispEdges"/><rect fill="#2a2e42" x="0" y="709.1" width="768.6" height="24.65" shape-rendering="crispEdges"/><rect fill="#1a1b26" x="768.6" y="709.1" width="512.4" height="24.65" shape-rendering="crispEdges"/><rect fill="#4f4270" x="1281" y="709.1" width="24.4" height="24.65" shape-rendering="crispEdges"/><rect fill="#2a2e42" x="0" y="733.5" width="768.6" height="24.65" shape-rendering="crispEdges"/><rect fill="#1a1b26" x="768.6" y="733.5" width="512.4" height="24.65" shape-rendering="crispEdges"/><rect fill="#4f4270" x="1281" y="733.5" width="24.4" height="24.65" shape-rendering="crispEdges"/><rect fill="#2a2e42" x="0" y="757.9" width="768.6" height="24.65" shape-rendering="crispEdges"/><rect fill="#1a1b26" x="768.6" y="757.9" width="512.4" height="24.65" shape-rendering="crispEdges"/><rect fill="#4f4270" x="1281" y="757.9" width="24.4" height="24.65" shape-rendering="crispEdges"/><rect fill="#1a1b26" x="0" y="782.3" width="1281" height="24.65" shape-rendering="crispEdges"/><rect fill="#4f4270" x="1281" y="782.3" width="24.4" height="24.65" shape-rendering="crispEdges"/><rect fill="#1a1b26" x="0" y="806.7" width="1281" height="24.65" shape-rendering="crispEdges"/><rect fill="#4f4270" x="1281" y="806.7" width="24.4" height="24.65" shape-rendering="crispEdges"/><rect fill="#1a1b26" x="0" y="831.1" width="1281" height="24.65" shape-rendering="crispEdges"/><rect fill="#4f4270" x="1281" y="831.1" width="24.4" height="24.65" shape-rendering="crispEdges"/><rect fill="#414868" x="0" y="855.5" width="97.6" height="24.65" shape-rendering="crispEdges"/><rect fill="#414868" x="97.6" y="855.5" width="1037" height="24.65" shape-rendering="crispEdges"/><rect fill="#414868" x="1134.6" y="855.5" width="146.4" height="24.65" shape-rendering="crispEdges"/><rect fill="#4f4270" x="1281" y="855.5" width="24.4" height="24.65" shape-rendering="crispEdges"/>
    <g class="terminal-1244943241-matrix">
    <text class="terminal-1244943241-r2" x="12.2" y="20" textLength="12.2" clip-path="url(#terminal-1244943241-line-0)">⭘</text><text class="terminal-1244943241-r2" x="585.6" y="20" textLength="85.4" clip-path="url(#terminal-1244943241-line-0)">ChipBoy</text><text class="terminal-1244943241-r1" x="1305.4" y="20" textLength="12.2" clip-path="url(#terminal-1244943241-line-0)">
</text><text class="terminal-1244943241-r4" x="12.2" y="44.4" textLength="793" clip-path="url(#terminal-1244943241-line-1)">&#160;|&#160;&lt;Enter&gt;&#160;Edit&#160;Cell&#160;|&#160;&lt;Backspace&gt;&#160;Clear&#160;Cell&#160;|&#160;&lt;P&gt;&#160;Play&#160;Sequence</text><text class="terminal-1244943241-r1" x="1305.4" y="44.4" textLength="12.2" clip-path="url(#terminal-1244943241-line-1)">
</text><text class="terminal-1244943241-r5" x="48.8" y="68.8" textLength="73.2" clip-path="url(#terminal-1244943241-line-2)">&#160;Note&#160;</text><text class="terminal-1244943241-r5" x="122" y="68.8" textLength="122" clip-path="url(#terminal-1244943241-line-2)">&#160;Duration&#160;</text><text class="terminal-1244943241-r5" x="244" y="68.8" textLength="122" clip-path="url(#terminal-1244943241-line-2)">&#160;Wave&#160;&#160;&#160;&#160;&#160;</text><text class="terminal-1244943241-r1" x="1305.4" y="68.8" textLength="12.2" clip-path="url(#terminal-1244943241-line-2)">
</text><text class="terminal-1244943241-r5" x="0" y="93.2" textLength="48.8" clip-path="url(#terminal-1244943241-line-3)">&#160;00&#160;</text><text class="terminal-1244943241-r2" x="48.8" y="93.2" textLength="73.2" clip-path="url(#terminal-1244943241-line-3)">&#160;D&#160;4&#160;&#160;</text><text class="terminal-1244943241-r2" x="122" y="93.2" textLength="122" clip-path="url(#terminal-1244943241-line-3)">&#160;1/16&#160;&#160;&#160;&#160;&#160;</text><text class="terminal-1244943241-r2" x="244" y="93.2" textLength="122" clip-path="url(#terminal-1244943241-line-3)">&#160;sawtooth&#160;</text><text class="terminal-1244943241-r1" x="1305.4" y="93.2" textLength="12.2" clip-path="url(#terminal-1244943241-line-3)">
</text><text class="terminal-1244943241-r5" x="0" y="117.6" textLength="48.8" clip-path="url(#terminal-1244943241-line-4)">&#160;01&#160;</text><text class="terminal-1244943241-r2" x="48.8" y="117.6" textLength="73.2" clip-path="url(#terminal-1244943241-line-4)">&#160;----&#160;</text><text class="terminal-1244943241-r2" x="122" y="117.6" textLength="122" clip-path="url(#terminal-1244943241-line-4)">&#160;1/16&#160;&#160;&#160;&#160;&#160;</text><text class="terminal-1244943241-r2" x="244" y="117.6" textLength="122" clip-path="url(#terminal-1244943241-line-4)">&#160;square&#160;&#160;&#160;</text><text class="terminal-1244943241-r1" x="1305.4" y="117.6" textLength="12.2" clip-path="url(#terminal-1244943241-line-4)">
</text><text class="terminal-1244943241-r5" x="0" y="142" textLength="48.8" clip-path="url(#terminal-1244943241-line-5)">&#160;02&#160;</text><text class="terminal-1244943241-r2" x="48.8" y="142" textLength="73.2" clip-path="url(#terminal-1244943241-line-5)">&#160;C&#160;4&#160;&#160;</text><text class="terminal-1244943241-r2" x="122" y="142" textLength="122" clip-path="url(#terminal-1244943241-line-5)">&#160;1/16&#160;&#160;&#160;&#160;&#160;</text><text class="terminal-1244943241-r2" x="244" y="142" textLength="122" clip-path="url(#terminal-1244943241-line-5)">&#160;noise&#160;&#160;&#160;&#160;</text><text class="terminal-1244943241-r1" x="1305.4" y="142" textLength="12.2" clip-path="url(#terminal-1244943241-line-5)">
</text><text class="terminal-1244943241-r5" x="0" y="166.4" textLength="48.8" clip-path="url(#terminal-1244943241-line-6)">&#160;03&#160;</text><text class="terminal-1244943241-r2" x="48.8" y="166.4" textLength="73.2" clip-path="url(#terminal-1244943241-line-6)">&#160;----&#160;</text><text class="terminal-1244943241-r2" x="122" y="166.4" textLength="122" clip-path="url(#terminal-1244943241-line-6)">&#160;1/16&#160;&#160;&#160;&#160;&#160;</text><text class="terminal-1244943241-r2" x="244" y="166.4" textLength="122" clip-path="url(#terminal-1244943241-line-6)">&#160;square&#160;&#160;&#160;</text><text class="terminal-1244943241-r1" x="1305.4" y="166.4" textLength="12.2" clip-path="url(#terminal-1244943241-line-6)">
</text><text class="terminal-1244943241-r5" x="0" y="190.8" textLength="48.8" clip-path="url(#terminal-1244943241-line-7)">&#160;04&#160;</text><text class="terminal-1244943241-r2" x="48.8" y="190.8" textLength="73.2" clip-path="url(#terminal-1244943241-line-7)">&#160;E&#160;4&#160;&#160;</text><text class="terminal-1244943241-r2" x="122" y="190.8" textLength="122" clip-path="url(#terminal-1244943241-line-7)">&#160;1/16&#160;&#160;&#160;&#160;&#160;</text><text class="terminal-1244943241-r2" x="244" y="190.8" textLength="122" clip-path="url(#terminal-1244943241-line-7)">&#160;sawtooth&#160;</text><text class="terminal-1244943241-r1" x="1305.4" y="190.8" textLength="12.2" clip-path="url(#terminal-1244943241-line-7)">
</text><text class="terminal-1244943241-r5" x="0" y="215.2" textLength="48.8" clip-path="url(#terminal-1244943241-line-8)">&#160;05&#160;</text><text class="terminal-1244943241-r2" x="48.8" y="215.2" textLength="73.2" clip-path="url(#terminal-1244943241-line-8)">&#160;----&#160;</text><text class="terminal-1244943241-r2" x="122" y="215.2" textLength="122" clip-path="url(#terminal-1244943241-line-8)">&#160;1/16&#160;&#160;&#160;&#160;&#160;</text><text class="terminal-1244943241-r2" x="244" y="215.2" textLength="122" clip-path="url(#terminal-1244943241-line-8)">&#160;square&#160;&#160;&#160;</text><text class="terminal-1244943241-r1" x="1305.4" y="215.2" textLength="12.2" clip-path="url(#terminal-1244943241-line-8)">
</text><text class="terminal-1244943241-r5" x="0" y="239.6" textLength="48.8" clip-path="url(#terminal-1244943241-line-9)">&#160;06&#160;</text><text class="terminal-1244943241-r2" x="48.8" y="239.6" textLength="73.2" clip-path="url(#terminal-1244943241-line-9)">&#160;C&#160;4&#160;&#160;</text><text class="terminal-1244943241-r2" x="122" y="239.6" textLength="122" clip-path="url(#terminal-1244943241-line-9)">&#160;1/16&#160;&#160;&#160;&#160;&#160;</text><text class="terminal-1244943241-r2" x="244" y="239.6" textLength="122" clip-path="url(#terminal-1244943241-line-9)">&#160;noise&#160;&#160;&#160;&#160;</text><text class="terminal-1244943241-r1" x="1305.4" y="239.6" textLength="12.2" clip-path="url(#terminal-1244943241-line-9)">
</text><text class="terminal-1244943241-r5" x="0" y="264" textLength="48.8" clip-path="url(#terminal-1244943241-line-10)">&#160;07&#160;</text><text class="terminal-1244943241-r2" x="48.8" y="264" textLength="73.2" clip-path="url(#terminal-1244943241-line-10)">&#160;----&#160;</text><text class="terminal-1244943241-r2" x="122" y="264" textLength="122" clip-path="url(#terminal-1244943241-line-10)">&#160;1/16&#160;&#160;&#160;&#160;&#160;</text><text class="terminal-1244943241-r2" x="244" y="264" textLength="122" clip-path="url(#terminal-1244943241-line-10)">&#160;square&#160;&#160;&#160;</text><text class="terminal-1244943241-r1" x="1305.4" y="264" textLength="12.2" clip-path="url(#terminal-1244943241-line-10)">
</text><text class="terminal-1244943241-r5" x="0" y="288.4" textLength="48.8" clip-path="url(#terminal-1244943241-line-11)">&#160;08&#160;</text><text class="terminal-1244943241-r2" x="48.8" y="288.4" textLength="73.2" clip-path="url(#terminal-1244943241-line-11)">&#160;G#&#160;4&#160;</text><text class="terminal-1244943241-r2" x="122" y="288.4" textLength="122" clip-path="url(#terminal-1244943241-line-11)">&#160;1/4&#160;&#160;&#160;&#160;&#160;&#160;</text><text class="terminal-1244943241-r2" x="244" y="288.4" textLength="122" clip-path="url(#terminal-1244943241-line-11)">&#160;sawtooth&#160;</text><text class="terminal-1244943241-r1" x="1305.4" y="288.4" textLength="12.2" clip-path="url(#terminal-1244943241-line-11)">
</text><text class="terminal-1244943241-r5" x="0" y="312.8" textLength="48.8" clip-path="url(#terminal-1244943241-line-12)">&#160;09&#160;</text><text class="terminal-1244943241-r2" x="48.8" y="312.8" textLength="73.2" clip-path="url(#terminal-1244943241-line-12)">&#160;----&#160;</text><text class="terminal-1244943241-r2" x="122" y="312.8" textLength="122" clip-path="url(#terminal-1244943241-line-12)">&#160;1/16&#160;&#160;&#160;&#160;&#160;</text><text class="terminal-1244943241-r2" x="244" y="312.8" textLength="122" clip-path="url(#terminal-1244943241-line-12)">&#160;square&#160;&#160;&#160;</text><text class="terminal-1244943241-r1" x="1305.4" y="312.8" textLength="12.2" clip-path="url(#terminal-1244943241-line-12)">
</text><text class="terminal-1244943241-r5" x="0" y="337.2" textLength="48.8" clip-path="url(#terminal-1244943241-line-13)">&#160;0A&#160;</text><text class="terminal-1244943241-r2" x="48.8" y="337.2" textLength="73.2" clip-path="url(#terminal-1244943241-line-13)">&#160;C&#160;4&#160;&#160;</text><text class="terminal-1244943241-r2" x="122" y="337.2" textLength="122" clip-path="url(#terminal-1244943241-line-13)">&#160;1/16&#160;&#160;&#160;&#160;&#160;</text><text class="terminal-1244943241-r2" x="244" y="337.2" textLength="122" clip-path="url(#terminal-1244943241-line-13)">&#160;noise&#160;&#160;&#160;&#160;</text><text class="terminal-1244943241-r1" x="1305.4" y="337.2" textLength="12.2" clip-path="url(#terminal-1244943241-line-13)">
</text><text class="terminal-1244943241-r5" x="0" y="361.6" textLength="48.8" clip-path="url(#terminal-1244943241-line-14)">&#160;0B&#160;</text><text class="terminal-1244943241-r2" x="48.8" y="361.6" textLength="73.2" clip-path="url(#terminal-1244943241-line-14)">&#160;----&#160;</text><text class="terminal-1244943241-r2" x="122" y="361.6" textLength="122" clip-path="url(#terminal-1244943241-line-14)">&#160;1/16&#160;&#160;&#160;&#160;&#160;</text><text class="terminal-1244943241-r2" x="244" y="361.6" textLength="122" clip-path="url(#terminal-1244943241-line-14)">&#160;square&#160;&#160;&#160;</text><text class="terminal-1244943241-r1" x="1305.4" y="361.6" textLength="12.2" clip-path="url(#terminal-1244943241-line-14)">
</text><text class="terminal-1244943241-r5" x="0" y="386" textLength="48.8" clip-path="url(#terminal-1244943241-line-15)">&#160;0C&#160;</text><text class="terminal-1244943241-r2" x="48.8" y="386" textLength="73.2" clip-path="url(#terminal-1244943241-line-15)">&#160;G&#160;4&#160;&#160;</text><text class="terminal-1244943241-r2" x="122" y="386" textLength="122" clip-path="url(#terminal-1244943241-line-15)">&#160;1/16&#160;&#160;&#160;&#160;&#160;</text><text class="terminal-1244943241-r2" x="244" y="386" textLength="122" clip-path="url(#terminal-1244943241-line-15)">&#160;sawtooth&#160;</text><text class="terminal-1244943241-r1" x="1305.4" y="386" textLength="12.2" clip-path="url(#terminal-1244943241-line-15)">
</text><text class="terminal-1244943241-r5" x="0" y="410.4" textLength="48.8" clip-path="url(#terminal-1244943241-line-16)">&#160;0D&#160;</text><text class="terminal-1244943241-r6" x="48.8" y="410.4" textLength="73.2" clip-path="url(#terminal-1244943241-line-16)">&#160;----&#160;</text><text class="terminal-1244943241-r2" x="122" y="410.4" textLength="122" clip-path="url(#terminal-1244943241-line-16)">&#160;1/16&#160;&#160;&#160;&#160;&#160;</text><text class="terminal-1244943241-r2" x="244" y="410.4" textLength="122" clip-path="url(#terminal-1244943241-line-16)">&#160;square&#160;&#160;&#160;</text><text class="terminal-1244943241-r1" x="1305.4" y="410.4" textLength="12.2" clip-path="url(#terminal-1244943241-line-16)">
</text><text class="terminal-1244943241-r5" x="0" y="434.8" textLength="48.8" clip-path="url(#terminal-1244943241-line-17)">&#160;0E&#160;</text><text class="terminal-1244943241-r2" x="48.8" y="434.8" textLength="73.2" clip-path="url(#terminal-1244943241-line-17)">&#160;C&#160;4&#160;&#160;</text><text class="terminal-1244943241-r2" x="122" y="434.8" textLength="122" clip-path="url(#terminal-1244943241-line-17)">&#160;1/16&#160;&#160;&#160;&#160;&#160;</text><text class="terminal-1244943241-r2" x="244" y="434.8" textLength="122" clip-path="url(#terminal-1244943241-line-17)">&#160;noise&#160;&#160;&#160;&#160;</text><text class="terminal-1244943241-r1" x="1305.4" y="434.8" textLength="12.2" clip-path="url(#terminal-1244943241-line-17)">
</text><text class="terminal-1244943241-r1" x="1305.4" y="459.2" textLength="12.2" clip-path="url(#terminal-1244943241-line-18)">
</text><text class="terminal-1244943241-r1" x="1305.4" y="483.6" textLength="12.2" clip-path="url(#terminal-1244943241-line-19)">
</text><text class="terminal-1244943241-r1" x="1305.4" y="508" textLength="12.2" clip-path="url(#terminal-1244943241-line-20)">
</text><text class="terminal-1244943241-r1" x="1305.4" y="532.4" textLength="12.2" clip-path="url(#terminal-1244943241-line-21)">
</text><text class="terminal-1244943241-r1" x="1305.4" y="556.8" textLength="12.2" clip-path="url(#terminal-1244943241-line-22)">
</text><text class="terminal-1244943241-r1" x="1305.4" y="581.2" textLength="12.2" clip-path="url(#terminal-1244943241-line-23)">
</text><text class="terminal-1244943241-r1" x="1305.4" y="605.6" textLength="12.2" clip-path="url(#terminal-1244943241-line-24)">
</text><text class="terminal-1244943241-r1" x="1305.4" y="630" textLength="12.2" clip-path="url(#terminal-1244943241-line-25)">
</text><text class="terminal-1244943241-r1" x="1305.4" y="654.4" textLength="12.2" clip-path="url(#terminal-1244943241-line-26)">
</text><text class="terminal-1244943241-r1" x="1305.4" y="678.8" textLength="12.2" clip-path="url(#terminal-1244943241-line-27)">
</text><text class="terminal-1244943241-r1" x="1305.4" y="703.2" textLength="12.2" clip-path="url(#terminal-1244943241-line-28)">
</text><text class="terminal-1244943241-r1" x="1305.4" y="727.6" textLength="12.2" clip-path="url(#terminal-1244943241-line-29)">
</text><text class="terminal-1244943241-r1" x="1305.4" y="752" textLength="12.2" clip-path="url(#terminal-1244943241-line-30)">
</text><text class="terminal-1244943241-r1" x="1305.4" y="776.4" textLength="12.2" clip-path="url(#terminal-1244943241-line-31)">
</text><text class="terminal-1244943241-r1" x="1305.4" y="800.8" textLength="12.2" clip-path="url(#terminal-1244943241-line-32)">
</text><text class="terminal-1244943241-r1" x="1305.4" y="825.2" textLength="12.2" clip-path="url(#terminal-1244943241-line-33)">
</text><text class="terminal-1244943241-r1" x="1305.4" y="849.6" textLength="12.2" clip-path="url(#terminal-1244943241-line-34)">
</text><text class="terminal-1244943241-r7" x="1281" y="874" textLength="24.4" clip-path="url(#terminal-1244943241-line-35)">▇▇</text>
    </g>
    </g>
</svg>
